<?xml version="1.0" standalone="no"?> <!DOCTYPE svg PUBLIC "-//W3C//DTD SVG 1.0//EN" "http://www.w3.org/TR/2001/REC-SVG-20010904/DTD/svg10.dtd" > <svg xmlns="http://www.w3.org/2000/svg" width="100%" height="100%">
<defs >
<font id="gothamxlight" horiz-adv-x="993" ><font-face
    font-family="Gotham"
    units-per-em="2048"
    panose-1="2 0 6 4 3 0 0 2 0 4"
    ascent="1829"
    descent="-410"
    alphabetic="0" />
<missing-glyph horiz-adv-x="1024" />
<glyph unicode=" " glyph-name="space" horiz-adv-x="589" />
<glyph unicode="!" glyph-name="exclam" horiz-adv-x="444" d="M205 375L184 1243V1434H260V1243L240 375H205ZM174 0V133H272V0H174Z" />
<glyph unicode="&quot;" glyph-name="quotedbl" horiz-adv-x="708" d="M434 913L506 1434H590V1427L473 913H434ZM129 913L201 1434H285V1427L168 913H129Z" />
<glyph unicode="#" glyph-name="numbersign" horiz-adv-x="1384" d="M272 0L340 399H100V463H350L440 983H182V1044H451L518 1434H582L516 1044H979L1047 1434H1110L1042 1044H1282V983H1032L944 463H1200V399H932L864 0H801L868 399H406L336 0H272ZM416 461H879L969
983H506L416 461Z" />
<glyph unicode="$" glyph-name="dollar" horiz-adv-x="1282" d="M614 -201V2Q342 23 131 221L176 272Q373 83 616 61V700Q391 751 288 835T184 1069V1073Q184 1225 304 1328T614 1432V1552H678V1432Q904 1417 1085 1264L1042 1210Q874 1359 676 1372V752Q911 701
1020 614T1130 377V373Q1130 210 1006 105T678 0V-201H614ZM616 768V1374Q454 1373 354 1288T254 1077V1073Q254 953 335 884T616 768ZM676 59Q852 59 956 146T1061 369V373Q1061 499 974 567T676 686V59Z" />
<glyph unicode="%" glyph-name="percent" horiz-adv-x="1650" d="M428 715Q336 715 263 766T150 900T111 1079V1083Q111 1180 150 1263T262 1398T428 1450Q568 1450 656 1342T745 1085V1081Q745 931 656 823T428 715ZM264 0L1317 1434H1386L334 0H264ZM1362 -16T1223
-16T995 91T905 348V352Q905 502 994 610T1223 719Q1316 719 1389 668T1501 533T1540 354V350Q1540 200 1451 92ZM430 772Q539 772 607 861T676 1077V1081Q676 1208 605 1299T426 1391Q319 1391 250 1301T180 1085V1081Q180 953 251 863T430 772ZM1225 43Q1334
43 1402 131T1470 348V352Q1470 480 1400 571T1221 662T1044 572T975 356V352Q975 224 1046 134T1225 43Z" />
<glyph unicode="&amp;" glyph-name="ampersand" horiz-adv-x="1388" d="M1266 -25L1020 238Q808 -20 535 -20Q348 -20 226 89T104 360V365Q104 446 133 513T218 632T338 722T489 797Q393 901 351 982T309 1145V1149Q309 1274 403 1366T649 1458Q789 1458 880 1370T971
1161V1157Q971 1036 885 948T602 778L1018 338Q1121 483 1212 717L1274 694Q1173 441 1061 291L1317 20L1266 -25ZM559 821Q745 896 824 973T903 1155V1159Q903 1256 831 1327T647 1399Q527 1399 453 1326T379 1153V1149Q379 1076 419 1001T559 821ZM535 41Q779
41 977 283L532 752Q450 718 389 683T278 601T201 496T174 367V362Q174 228 275 135T535 41Z" />
<glyph unicode="&apos;" glyph-name="quotesingle" horiz-adv-x="405" d="M129 913L201 1434H285V1427L168 913H129Z" />
<glyph unicode="(" glyph-name="parenleft" horiz-adv-x="831" d="M690 -287Q422 -135 282 89T141 588T281 1087T690 1462L719 1417Q470 1272 341 1060T211 588T340 116T719 -242L690 -287Z" />
<glyph unicode=")" glyph-name="parenright" horiz-adv-x="831" d="M141 -287L113 -242Q361 -96 491 116T621 588Q621 848 491 1060T113 1417L141 1462Q410 1311 550 1087T690 588Q690 312 550 89T141 -287Z" />
<glyph unicode="*" glyph-name="asterisk" horiz-adv-x="880" d="M410 831L424 1108L193 954L160 1010L412 1135L160 1260L193 1315L424 1161L410 1438H471L457 1161L688 1315L721 1260L469 1135L721 1010L688 954L457 1108L471 831H410Z" />
<glyph unicode="+" glyph-name="plus" horiz-adv-x="1202" d="M569 256V690H145V752H569V1186H635V752H1057V690H635V256H569Z" />
<glyph unicode="," glyph-name="comma" horiz-adv-x="389" d="M131 -186L113 -152Q158 -129 176 -94T190 0H145V133H244V16Q244 -73 218 -118T131 -186Z" />
<glyph unicode="-" glyph-name="hyphen" horiz-adv-x="811" d="M143 573V645H668V573H143Z" />
<glyph unicode="." glyph-name="period" horiz-adv-x="389" d="M145 0V133H244V0H145Z" />
<glyph unicode="/" glyph-name="slash" horiz-adv-x="989" d="M-37 -262L928 1634H995L31 -262H-37Z" />
<glyph unicode="0" glyph-name="zero" horiz-adv-x="1454" d="M727 -25Q592 -25 479 35T292 196T178 432T137 715V719Q137 866 178 999T293 1235T480 1397T727 1458Q862 1458 975 1398T1162 1237T1276 1002T1317 719V715Q1317 568 1276 435T1161 199T974 36T727
-25ZM610 39T729 39T946 94T1109 243T1209 458T1245 713V717Q1245 850 1209 971T1108 1187T944 1338T725 1395T508 1340T345 1191T245 976T209 721V717Q209 584 245 463T346 247T510 96Z" />
<glyph unicode="1" glyph-name="one" horiz-adv-x="661" d="M358 0V1368L88 1260L66 1315L373 1444H426V0H358Z" />
<glyph unicode="2" glyph-name="two" horiz-adv-x="1179" d="M88 0V47L692 618Q854 769 913 872T973 1075Q973 1209 871 1301T616 1393Q349 1393 180 1112L125 1147Q210 1294 330 1374T621 1454Q805 1454 924 1346T1044 1081V1077Q1044 959 979 851T737 573L201
66H1063V0H88Z" />
<glyph unicode="3" glyph-name="three" horiz-adv-x="1159" d="M575 -25Q412 -25 279 44T57 231L111 276Q195 165 314 102T578 39Q741 39 856 134T971 377V381Q971 494 906 571T731 684T471 719H412L391 760L924 1368H133V1434H1018V1384L492 782Q656 779 777
737T969 604T1040 383V379Q1040 263 976 170T806 26T575 -25Z" />
<glyph unicode="4" glyph-name="four" horiz-adv-x="1306" d="M922 0V365H104L82 414L928 1444H987V426H1223V365H987V0H922ZM172 426H922V1341L172 426Z" />
<glyph unicode="5" glyph-name="five" horiz-adv-x="1222" d="M608 -25Q469 -25 336 40T115 205L166 254Q253 157 370 98T612 39Q797 39 915 148T1034 426V430Q1034 592 915 694T612 797Q430 797 256 702L207 731L248 1434H1028V1368H311L274 780Q438 858 621
858Q829 858 966 739T1104 432V428Q1104 230 965 103T608 -25Z" />
<glyph unicode="6" glyph-name="six" horiz-adv-x="1294" d="M674 -25Q456 -25 313 121Q225 207 182 339T139 674V678Q139 900 206 1076T405 1355T711 1458Q928 1458 1116 1292L1071 1239Q902 1395 705 1395Q554 1395 441 1302T269 1047T209 678V674Q209 586 211
543Q246 685 372 783T672 881Q881 881 1025 757T1169 442V438Q1169 344 1131 259T1027 111T869 12T674 -25ZM678 39Q857 39 977 156T1098 436V440Q1098 603 976 711T670 819Q583 819 504 788T368 704T279 582T246 438V434Q246 271 371 155T678 39Z" />
<glyph unicode="7" glyph-name="seven" horiz-adv-x="1136" d="M297 0L981 1368H119V1434H1059V1386L373 0H297Z" />
<glyph unicode="8" glyph-name="eight" horiz-adv-x="1286" d="M643 -20Q408 -20 262 92T115 373V377Q115 507 214 605T467 739Q332 782 251 868T170 1079V1083Q170 1242 308 1348T643 1454T977 1348T1116 1083V1079Q1116 955 1035 869T819 739Q973 701 1071 604T1169
377V373Q1169 205 1023 93T643 -20ZM643 768Q813 768 928 854T1044 1079V1083Q1044 1215 928 1303T641 1391T356 1304T240 1085V1081Q240 943 357 856T643 768ZM643 43Q850 43 975 137T1100 369V373Q1100 468 1038 545T871 664T641 707Q450 707 318 613T186 375V371Q186
234 311 139T643 43Z" />
<glyph unicode="9" glyph-name="nine" horiz-adv-x="1294" d="M586 -25Q469 -25 361 23T164 154L209 207Q386 39 588 39Q738 39 852 133T1026 388T1087 754V758Q1087 777 1086 823T1085 887Q1050 739 923 639T623 539Q408 539 267 664T125 983V987Q125 1116 189
1223T368 1394T623 1458Q835 1458 983 1313Q1157 1139 1157 758V754Q1157 530 1087 354T887 76T586 -25ZM627 602Q804 602 926 717T1049 989V993Q1049 1161 924 1278T616 1395Q499 1395 402 1339T251 1190T197 989V985Q197 817 318 710T627 602Z" />
<glyph unicode=":" glyph-name="colon" horiz-adv-x="403" d="M152 899V1032H250V899H152ZM152 0V133H250V0H152Z" />
<glyph unicode=";" glyph-name="semicolon" horiz-adv-x="403" d="M152 899V1032H250V899H152ZM137 -186L119 -152Q164 -129 182 -94T197 0H152V133H250V16Q250 -73 225 -118T137 -186Z" />
<glyph unicode="&lt;" glyph-name="less" horiz-adv-x="1261" d="M1075 213L129 698V743L1075 1229V1157L219 721L1075 285V213Z" />
<glyph unicode="=" glyph-name="equal" horiz-adv-x="1261" d="M190 926V991H1071V926H190ZM190 453V518H1071V453H190Z" />
<glyph unicode="&gt;" glyph-name="greater" horiz-adv-x="1261" d="M186 213V285L1042 721L186 1157V1229L1133 743V698L186 213Z" />
<glyph unicode="?" glyph-name="question" horiz-adv-x="1050" d="M449 375L428 700L436 709Q634 718 754 810T874 1055V1059Q874 1200 772 1295T506 1391Q386 1391 284 1330T109 1161L57 1200Q230 1452 508 1452Q702 1452 823 1340T944 1063V1059Q944 968 908
894T810 770T670 691T504 651L487 375H449ZM420 0V133H518V0H420Z" />
<glyph unicode="@" glyph-name="at" horiz-adv-x="1968" d="M1010 -334Q824 -334 660 -268T378 -86T192 194T123 547Q123 727 190 893T371 1184T648 1383T993 1458Q1171 1458 1330 1393T1602 1218T1781 963T1847 657Q1847 531 1815 432T1729 276T1616 189T1495
160Q1386 160 1325 223T1253 385Q1194 283 1103 222T899 160Q748 160 650 255T551 508Q551 644 615 758T782 935T997 999Q1114 999 1197 937T1307 776L1341 961L1405 950L1331 543Q1317 467 1317 414Q1317 319 1362 265T1499 211Q1552 211 1602 237T1697 315T1767
455T1794 657Q1794 803 1733 940T1566 1181T1310 1346T991 1409Q818 1409 665 1339T405 1152T236 876T174 547Q174 369 238 214T413 -51T680 -222T1012 -285Q1281 -285 1501 -147L1526 -186Q1300 -334 1010 -334ZM905 223Q1004 223 1091 282T1229 438T1280 639Q1280
765 1199 850T997 936Q847 936 734 813T621 512Q621 378 699 301T905 223Z" />
<glyph unicode="A" glyph-name="A" horiz-adv-x="1589" d="M82 0L762 1444H827L1507 0H1432L1237 418H350L154 0H82ZM381 481H1206L793 1362L381 481Z" />
<glyph unicode="B" glyph-name="B" horiz-adv-x="1482" d="M213 0V1434H803Q1053 1434 1178 1309Q1270 1215 1270 1077V1073Q1270 942 1196 854T1006 733Q1156 705 1252 614T1348 383V379Q1348 201 1211 101T834 0H213ZM283 756H817Q985 756 1092 837T1200 1067V1071Q1200
1208 1094 1289T801 1370H283V756ZM283 63H836Q1043 63 1159 146T1276 377V381Q1276 529 1158 610T844 692H283V63Z" />
<glyph unicode="C" glyph-name="C" horiz-adv-x="1497" d="M854 -25Q705 -25 574 33T350 191T204 426T150 713V717Q150 866 203 1002T350 1239T575 1398T858 1458Q1041 1458 1165 1401T1409 1231L1360 1180Q1255 1281 1138 1338T856 1395Q678 1395 532 1304T303
1058T221 719V715Q221 532 304 377T534 130T858 39Q1146 39 1368 268L1417 221Q1175 -25 854 -25Z" />
<glyph unicode="D" glyph-name="D" horiz-adv-x="1591" d="M213 0V1434H680Q846 1434 988 1379T1230 1228T1385 1001T1442 719V715Q1442 565 1386 433T1230 206T989 55T680 0H213ZM283 63H682Q833 63 962 113T1181 251T1320 458T1370 713V717Q1370 852 1320 971T1181
1179T962 1318T680 1370H283V63Z" />
<glyph unicode="E" glyph-name="E" horiz-adv-x="1361" d="M213 0V1434H1223V1370H283V754H1133V690H283V63H1233V0H213Z" />
<glyph unicode="F" glyph-name="F" horiz-adv-x="1304" d="M213 0V1434H1212V1370H283V735H1122V672H283V0H213Z" />
<glyph unicode="G" glyph-name="G" horiz-adv-x="1599" d="M1026 -25T862 -25T562 33T337 193T199 428T150 713V717Q150 832 181 941T275 1144T421 1307T619 1418T858 1458Q1019 1458 1135 1413T1366 1272L1321 1219Q1217 1306 1110 1350T854 1395Q715 1395 595
1339T394 1189T267 973T221 719V715Q221 576 265 453T391 237T594 91T864 37Q1005 37 1131 89T1354 221V662H844V729H1421V195Q1313 96 1170 36Z" />
<glyph unicode="H" glyph-name="H" horiz-adv-x="1546" d="M213 0V1434H283V754H1264V1434H1333V0H1264V690H283V0H213Z" />
<glyph unicode="I" glyph-name="I" horiz-adv-x="524" d="M227 0V1434H297V0H227Z" />
<glyph unicode="J" glyph-name="J" horiz-adv-x="1105" d="M487 -23Q344 -23 236 51T68 258L127 291Q243 41 492 41Q647 41 745 152T844 475V1434H913V483Q913 228 780 92Q662 -23 487 -23Z" />
<glyph unicode="K" glyph-name="K" horiz-adv-x="1452" d="M213 0V1434H283V475L1243 1434H1339L715 817L1364 0H1274L666 770L283 391V0H213Z" />
<glyph unicode="L" glyph-name="L" horiz-adv-x="1224" d="M213 0V1434H283V63H1147V0H213Z" />
<glyph unicode="M" glyph-name="M" horiz-adv-x="1767" d="M213 0V1434H279L885 561L1489 1434H1554V0H1485V1313L885 453H881L281 1313V0H213Z" />
<glyph unicode="N" glyph-name="N" horiz-adv-x="1605" d="M213 0V1434H276L1325 119V1434H1393V0H1337L281 1325V0H213Z" />
<glyph unicode="O" glyph-name="O" horiz-adv-x="1730" d="M864 -25Q737 -25 624 14T425 123T277 285T182 488T150 715V719Q150 865 201 999T344 1235T572 1397T866 1458T1160 1398T1387 1235T1529 999T1581 719Q1585 719 1581 715Q1581 569 1530 435T1386 198T1158
36T864 -25ZM868 39Q1053 39 1201 132T1429 378T1509 713V717Q1509 852 1461 975T1330 1192T1125 1340T864 1395Q724 1395 603 1341T398 1194T268 979T221 721V717Q221 582 269 458T400 242T606 94T868 39Z" />
<glyph unicode="P" glyph-name="P" horiz-adv-x="1368" d="M211 0V1434H723Q976 1434 1121 1319T1266 999V995Q1266 785 1112 668T707 551H281V0H211ZM281 616H709Q933 616 1064 716T1196 993V997Q1196 1173 1068 1271T717 1370H281V616Z" />
<glyph unicode="Q" glyph-name="Q" horiz-adv-x="1730" d="M1546 -29L1341 154Q1141 -25 864 -25Q737 -25 624 14T425 123T277 285T182 488T150 715V719Q150 865 201 999T344 1235T572 1397T866 1458T1160 1398T1387 1235T1529 999T1581 719Q1585 719 1581 715Q1581
571 1531 438T1389 201L1593 25L1546 -29ZM868 39Q1115 39 1290 199L989 459L1036 512L1337 246Q1420 338 1464 459T1509 713V717Q1509 852 1461 975T1330 1192T1125 1340T864 1395Q724 1395 603 1341T398 1194T268 979T221 721V717Q221 582 269 458T400 242T606
94T868 39Z" />
<glyph unicode="R" glyph-name="R" horiz-adv-x="1482" d="M213 0V1434H805Q1073 1434 1214 1296Q1319 1189 1319 1030V1026Q1319 849 1196 744T868 621L1346 0H1257L791 612H784H283V0H213ZM283 676H786Q1003 676 1126 771T1249 1022V1026Q1249 1188 1131 1279T801
1370H283V676Z" />
<glyph unicode="S" glyph-name="S" horiz-adv-x="1312" d="M692 -20Q368 -20 121 209L168 260Q397 43 696 43Q880 43 993 132T1106 358V362Q1106 449 1068 507T933 611T664 692Q401 744 289 833T176 1079V1083Q176 1239 308 1346T641 1454Q916 1454 1128 1286L1085
1231Q883 1391 637 1391Q465 1391 356 1302T246 1090V1085Q246 999 284 941T420 837T690 756Q954 703 1065 612T1176 369V365Q1176 197 1043 89T692 -20Z" />
<glyph unicode="T" glyph-name="T" horiz-adv-x="1245" d="M588 0V1370H78V1434H1169V1370H657V0H588Z" />
<glyph unicode="U" glyph-name="U" horiz-adv-x="1546" d="M774 -23Q508 -23 349 143T190 618V1434H260V623Q260 343 399 192T776 41T1150 188T1286 618V1434H1356V625Q1356 312 1199 145T774 -23Z" />
<glyph unicode="V" glyph-name="V" horiz-adv-x="1507" d="M725 -10L82 1434H158L756 78L1354 1434H1425L782 -10H725Z" />
<glyph unicode="W" glyph-name="W" horiz-adv-x="2152" d="M590 -10L94 1434H170L621 100L1051 1438H1104L1536 98L1987 1434H2058L1563 -10H1505L1075 1307L647 -10H590Z" />
<glyph unicode="X" glyph-name="X" horiz-adv-x="1417" d="M88 0L668 729L109 1434H190L709 776L1227 1434H1309L752 731L1329 0H1247L709 684L170 0H88Z" />
<glyph unicode="Y" glyph-name="Y" horiz-adv-x="1394" d="M664 0V588L53 1434H139L700 649L1257 1434H1341L733 588V0H664Z" />
<glyph unicode="Z" glyph-name="Z" horiz-adv-x="1396" d="M137 0V39L1153 1370H172V1434H1251V1395L236 63H1247V0H137Z" />
<glyph unicode="[" glyph-name="bracketleft" horiz-adv-x="856" d="M201 -266V1434H748V1382H266V-215H748V-266H201Z" />
<glyph unicode="\" glyph-name="backslash" horiz-adv-x="989" d="M956 -262L-8 1634H61L1026 -262H956Z" />
<glyph unicode="]" glyph-name="bracketright" horiz-adv-x="856" d="M109 -266V-215H590V1382H109V1434H655V-266H109Z" />
<glyph unicode="^" glyph-name="asciicircum" horiz-adv-x="1024" d="M166 1012L487 1440H537L858 1012H795L512 1372L227 1012H166Z" />
<glyph unicode="_" glyph-name="underscore" horiz-adv-x="1167" d="M-4 -313V-254H1171V-313H-4Z" />
<glyph unicode="`" glyph-name="grave" horiz-adv-x="1024" d="M559 1219L340 1440L420 1481L610 1219H559Z" />
<glyph unicode="a" glyph-name="a" horiz-adv-x="1165" d="M496 -25Q420 -25 351 -5T226 54T137 153T104 291V295Q104 452 231 539T561 627Q752 627 930 569V639Q930 811 834 899T561 987Q399 987 225 901L201 958Q386 1049 565 1049Q780 1049 893 936Q995 829
995 643V0H930V215Q884 118 772 47T496 -25ZM500 37Q684 37 808 138T932 381V508Q758 565 559 565Q385 565 280 495T174 299V295Q174 173 268 105T500 37Z" />
<glyph unicode="b" glyph-name="b" horiz-adv-x="1345" d="M713 -25Q550 -25 431 60T256 281V0H190V1495H256V748Q313 885 432 971T713 1057Q851 1057 967 989T1153 797T1223 518V514Q1223 399 1182 298T1072 127T910 16T713 -25ZM707 39Q902 39 1027 172T1153
512V516Q1153 720 1026 856T707 993Q516 993 384 855T252 518V514Q252 315 385 177T707 39Z" />
<glyph unicode="c" glyph-name="c" horiz-adv-x="1157" d="M645 -25Q500 -25 379 48T188 245T119 514V518Q119 662 188 785T379 983T647 1057Q779 1057 875 1007T1059 866L1012 819Q847 995 645 995Q452 995 320 856T188 520V516Q188 320 322 179T649 37Q854 37
1020 221L1067 180Q892 -25 645 -25Z" />
<glyph unicode="d" glyph-name="d" horiz-adv-x="1345" d="M633 -25Q529 -25 436 15T273 126T164 297T123 514V518Q123 633 163 734T273 905T435 1016T633 1057Q796 1057 915 972T1090 752V1495H1155V0H1090V285Q1033 148 914 62T633 -25ZM639 39Q830 39 962 177T1094
514V518Q1094 717 961 855T639 993Q444 993 319 861T193 520V516Q193 312 320 176T639 39Z" />
<glyph unicode="e" glyph-name="e" horiz-adv-x="1193" d="M631 -25Q527 -25 434 13T271 121T160 292T119 516V520Q119 748 259 902T612 1057Q703 1057 780 1027T913 946T1008 825T1066 677T1085 514V492H190Q200 287 327 162T633 37Q747 37 842 89T1004 227L1053
188Q887 -25 631 -25ZM190 551H1014Q1010 637 982 715T905 857T778 957T608 995Q434 995 317 869T190 551Z" />
<glyph unicode="f" glyph-name="f" horiz-adv-x="696" d="M258 0V973H100V1032H258V1161Q258 1340 346 1425Q420 1501 549 1501Q628 1501 698 1475V1411Q631 1438 549 1438Q324 1438 324 1155V1032H694V973H324V0H258Z" />
<glyph unicode="g" glyph-name="g" horiz-adv-x="1335" d="M641 -334Q381 -334 170 -174L209 -121Q405 -270 641 -270Q841 -270 959 -158T1077 166V352Q1014 229 896 153T627 76Q493 76 378 139T193 314T123 563V567Q123 670 164 761T274 917T435 1019T627 1057Q778
1057 896 981T1077 784V1032H1145V158Q1145 -66 1012 -199Q877 -334 641 -334ZM633 139Q751 139 854 194T1020 348T1083 563V567Q1083 684 1021 782T855 937T633 993Q450 993 323 872T195 569V565Q195 387 323 263T633 139Z" />
<glyph unicode="h" glyph-name="h" horiz-adv-x="1249" d="M190 0V1495H256V786Q275 835 307 880T388 967T505 1032T653 1057Q854 1057 966 933T1079 604V0H1014V594Q1014 778 918 886T645 995Q481 995 369 876T256 582V0H190Z" />
<glyph unicode="i" glyph-name="i" horiz-adv-x="473" d="M193 1317V1442H281V1317H193ZM203 0V1032H270V0H203Z" />
<glyph unicode="j" glyph-name="j" horiz-adv-x="475" d="M195 1317V1442H283V1317H195ZM61 -338Q19 -338 -16 -330V-270Q17 -279 59 -279Q125 -279 166 -232T207 -100V1032H272V-96Q272 -216 216 -277T61 -338Z" />
<glyph unicode="k" glyph-name="k" horiz-adv-x="1126" d="M190 0V1495H256V365L942 1032H1030L555 575L1055 0H973L510 530L256 287V0H190Z" />
<glyph unicode="l" glyph-name="l" horiz-adv-x="473" d="M203 0V1495H270V0H203Z" />
<glyph unicode="m" glyph-name="m" horiz-adv-x="1912" d="M190 0V1032H256V801Q294 904 387 980T608 1057Q754 1057 845 981T973 784Q1015 897 1113 977T1343 1057Q1523 1057 1629 941T1735 616V0H1669V610Q1669 794 1580 894T1339 995Q1202 995 1099 884T995
602V0H930V612Q930 793 841 894T602 995Q464 995 360 880T256 600V0H190Z" />
<glyph unicode="n" glyph-name="n" horiz-adv-x="1249" d="M190 0V1032H256V786Q275 835 307 880T388 967T505 1032T653 1057Q854 1057 966 933T1079 604V0H1014V594Q1014 778 918 886T645 995Q481 995 369 876T256 582V0H190Z" />
<glyph unicode="o" glyph-name="o" horiz-adv-x="1302" d="M651 -25Q498 -25 375 49T184 245T117 512V516Q117 660 184 783T375 982T653 1057T930 983T1119 787T1186 520V516Q1186 371 1120 248T930 50T651 -25ZM653 37Q786 37 893 102T1058 275T1116 514V518Q1116
647 1056 756T889 930T649 995Q449 995 319 856T188 518V514Q188 385 247 276T414 102T653 37Z" />
<glyph unicode="p" glyph-name="p" horiz-adv-x="1345" d="M190 -328V1032H256V748Q313 885 432 971T713 1057Q851 1057 967 989T1153 797T1223 518V514Q1223 399 1182 298T1072 127T910 16T713 -25Q550 -25 431 60T256 281V-328H190ZM707 39Q902 39 1027 172T1153
512V516Q1153 720 1026 856T707 993Q516 993 384 855T252 518V514Q252 315 385 177T707 39Z" />
<glyph unicode="q" glyph-name="q" horiz-adv-x="1345" d="M1090 -328V285Q1033 148 914 62T633 -25Q529 -25 436 15T273 126T164 297T123 514V518Q123 633 163 734T273 905T435 1016T633 1057Q796 1057 915 972T1090 752V1032H1155V-328H1090ZM639 39Q830 39
962 177T1094 514V518Q1094 717 961 855T639 993Q444 993 319 861T193 520V516Q193 312 320 176T639 39Z" />
<glyph unicode="r" glyph-name="r" horiz-adv-x="739" d="M190 0V1032H256V717Q306 861 422 959T694 1053V985H684Q563 985 464 914T310 730T256 489V0H190Z" />
<glyph unicode="s" glyph-name="s" horiz-adv-x="1009" d="M514 -18Q403 -18 291 22T94 133L133 184Q313 43 518 43Q644 43 728 103T813 258V262Q813 297 802 326T766 378T717 417T650 449T579 473T500 496T419 520T346 545T277 575T222 611T178 655T152 709T141
776V780Q141 897 239 974T494 1051Q584 1051 680 1021T856 936L819 881Q746 932 660 960T492 989Q366 989 288 931T209 786V782Q209 745 226 714T269 662T340 621T423 588T522 559Q589 541 633 527T728 487T810 434T860 364T881 268V264Q881 138 777 60T514 -18Z"
/>
<glyph unicode="t" glyph-name="t" horiz-adv-x="786" d="M520 -18Q393 -18 320 54T246 264V973H88V1032H246V1378H311V1032H686V973H311V270Q311 158 367 101T526 43Q604 43 682 80V16Q610 -18 520 -18Z" />
<glyph unicode="u" glyph-name="u" horiz-adv-x="1249" d="M596 -25Q396 -25 283 99T170 428V1032H236V438Q236 255 332 146T604 37Q768 37 880 156T993 451V1032H1059V0H993V246Q974 197 942 152T861 65T744 0T596 -25Z" />
<glyph unicode="v" glyph-name="v" horiz-adv-x="1165" d="M557 -8L84 1032H160L584 72L1010 1032H1081L610 -8H557Z" />
<glyph unicode="w" glyph-name="w" horiz-adv-x="1693" d="M467 -8L98 1032H172L496 86L821 1038H874L1200 86L1526 1032H1593L1227 -8H1171L848 934L522 -8H467Z" />
<glyph unicode="x" glyph-name="x" horiz-adv-x="1118" d="M78 0L518 524L94 1032H176L559 569L946 1032H1024L600 526L1040 0H958L559 481L156 0H78Z" />
<glyph unicode="y" glyph-name="y" horiz-adv-x="1181" d="M297 -334Q200 -334 98 -283L125 -227Q207 -272 299 -272Q387 -272 447 -216T580 2L84 1032H158L612 72L1028 1032H1098L633 -27Q554 -205 480 -269T297 -334Z" />
<glyph unicode="z" glyph-name="z" horiz-adv-x="1052" d="M92 0V37L862 973H119V1032H958V995L190 59H963V0H92Z" />
<glyph unicode="{" glyph-name="braceleft" horiz-adv-x="933" d="M797 -289Q708 -272 642 -250T533 -197T462 -134T422 -57T404 29T399 131V293Q399 559 147 559H102V616H147Q399 616 399 883V1044Q399 1095 402 1132T414 1209T441 1279T488 1337T559 1388T660
1429T797 1464L807 1415Q728 1398 672 1378T578 1331T518 1277T484 1210T470 1133T467 1040V881Q467 756 411 681T246 588Q467 545 467 295V135Q467 87 469 55T478 -13T500 -74T539 -125T600 -170T688 -207T807 -240L797 -289Z" />
<glyph unicode="|" glyph-name="bar" horiz-adv-x="550" d="M246 -262V1634H305V-262H246Z" />
<glyph unicode="}" glyph-name="braceright" horiz-adv-x="933" d="M137 -289L127 -240Q194 -225 245 -207T333 -170T394 -125T433 -75T455 -14T465 55T467 135V295Q467 420 523 494T688 588Q467 630 467 881V1040Q467 1097 464 1133T450 1209T416 1277T356 1331T263
1378T127 1415L137 1464Q214 1449 273 1430T375 1389T446 1338T492 1279T519 1210T532 1132T535 1044V883Q535 616 786 616H831V559H786Q535 559 535 293V131Q535 71 531 30T513 -57T472 -134T402 -196T292 -249T137 -289Z" />
<glyph unicode="~" glyph-name="asciitilde" horiz-adv-x="917" d="M215 510L170 520Q192 614 231 654T328 694Q371 694 464 642T592 590Q630 590 655 615T702 709L748 696Q726 603 687 563T590 522Q547 522 453 574T326 627Q288 627 263 602T215 510Z" />
</font>
</defs>
</svg>
